PathFileType	4	(X/Y/Z)	D:\TRACE\v60_Jaco2_6-2-23\JustBodyDRS_Motion3_1-v60.trc
DataRate	CameraRate	NumFrames	NumMarkers	Units	OrigDataRate	OrigDataStartFrame	OrigNumFrames
100.00	100.00	      17	9	mm	100.00	1	      7000
Frame#	Time	front left toe			Front right toe			aft left toe			aft right toe			Arm			FL body			FR body			AL Body			AR Body			
		X1	Y1	Z1	X2	Y2	Z2	X3	Y3	Z3	X4	Y4	Z4	X5	Y5	Z5	X6	Y6	Z6	X7	Y7	Z7	X8	Y8	Z8	X9	Y9	Z9	

1	0.000	-204.82068	63.54600	-205.98717	193.87143	51.68241	-142.38824	-292.83856	-47.71751	421.46313	116.62391	-51.13913	436.61615	-6.04325	1246.82471	-77.39094	-65.05766	642.04889	-300.62561	92.31274	641.13068	-280.35669	-176.11349	478.98044	623.17249	-25.68966	469.16202	640.34589	
2	0.010	-204.81705	63.53989	-206.00610	193.88631	51.69073	-142.35629	-292.85013	-47.70297	421.45804	116.66866	-51.13659	436.66287	-6.06651	1246.82581	-77.40109	-65.08786	642.05713	-300.59833	92.33123	641.10596	-280.32684	-176.18417	478.97021	623.15210	-25.71187	469.15106	640.34369	
3	0.020	-204.83282	63.55019	-205.99225	193.94104	51.71563	-142.37149	-292.82538	-47.71630	421.45920	116.69714	-51.09475	436.67151	-6.03879	1246.81409	-77.37395	-65.03100	642.00201	-300.62637	92.08734	641.08203	-280.19910	-176.10419	478.97620	623.13385	-25.67491	469.19534	640.34644	
4	0.030	-204.82166	63.56009	-205.99326	193.93039	51.77633	-142.35979	-292.77756	-47.78446	421.45190	116.75226	-51.07994	436.69058	-6.04322	1246.84106	-77.41650	-65.05442	641.99829	-300.61383	92.06718	641.11096	-280.17938	-176.11531	478.99814	623.15637	-25.68193	469.18143	640.31696	
5	0.040	-204.80809	63.55492	-206.00485	193.92740	51.72430	-142.35013	-292.88586	-47.69142	421.45258	116.73558	-51.07950	436.67337	-6.03145	1246.84277	-77.39178	-65.01820	642.01697	-300.62186	92.10888	641.05566	-280.18695	-176.04945	478.98007	623.14282	-25.66491	469.19882	640.34894	
6	0.050	-204.83206	63.57937	-206.00545	193.93741	51.73505	-142.37531	-292.84668	-47.67743	421.46973	116.67934	-51.10975	436.67099	-6.04102	1246.84753	-77.40800	-65.06670	642.03656	-300.61777	92.10796	641.07684	-280.19046	-176.12994	478.97546	623.13159	-25.73990	469.16479	640.31256	
7	0.060	-204.82472	63.55780	-206.01073	193.91470	51.71708	-142.37950	-292.76376	-47.71257	421.43347	116.62492	-51.15403	436.66058	-6.04811	1246.84460	-77.40814	-65.05869	642.05524	-300.62036	92.35020	641.13190	-280.34927	-176.13147	478.95096	623.17792	-25.70769	469.15399	640.36633	
8	0.070	-204.84225	63.56538	-206.01337	193.89645	51.71174	-142.38095	-292.81998	-47.70215	421.43552	116.53065	-51.15212	436.63797	-6.07957	1246.84070	-77.39445	-65.05603	642.02466	-300.62360	92.13579	641.09686	-280.19281	-176.20392	478.96414	623.13879	-25.69034	469.17242	640.37329	
9	0.080	-204.82217	63.56171	-206.00244	193.95927	51.73185	-142.36652	-292.80585	-47.71144	421.46353	116.73310	-51.08411	436.63007	-6.07412	1246.85437	-77.41119	-65.01054	642.03961	-300.62070	92.32786	641.11798	-280.32635	-176.10922	478.96848	623.13281	-25.69745	469.17908	640.32520	
10	0.090	-204.82312	63.58263	-206.01520	193.88045	51.76231	-142.39807	-292.80301	-47.71485	421.46744	116.64816	-51.09315	436.67670	-6.04313	1246.83850	-77.38959	-65.03918	642.00781	-300.62003	92.12319	641.09424	-280.18491	-176.12241	478.99643	623.13861	-25.69800	469.19315	640.35358	
11	0.100	-204.82782	63.56168	-206.02003	193.94499	51.77308	-142.39642	-292.79959	-47.69982	421.46222	116.79318	-51.04589	436.66226	-6.08625	1246.84460	-77.42620	-65.00571	642.02643	-300.63702	92.31322	641.14288	-280.31778	-176.05830	478.98199	623.13428	-25.66801	469.19235	640.33356	
12	0.110	-204.80627	63.55249	-205.99730	193.92349	51.76725	-142.38014	-292.78720	-47.72123	421.45367	116.64599	-51.10057	436.68570	-6.08495	1246.85498	-77.41815	-65.03541	642.03638	-300.61038	92.30788	641.11017	-280.32495	-176.13409	478.97769	623.14502	-25.67125	469.18591	640.35376	
13	0.120	-204.83157	63.55614	-206.01262	193.92615	51.71172	-142.40309	-292.85266	-47.71198	421.44986	116.67477	-51.11158	436.66577	-6.04530	1246.84094	-77.39317	-65.01662	642.02728	-300.63153	92.29691	641.10352	-280.32132	-176.07680	478.97308	623.14722	-25.69512	469.15347	640.34717	
14	0.130	-204.82526	63.55513	-205.99191	193.90686	51.74883	-142.37909	-292.79605	-47.74921	421.45575	116.65769	-51.08188	436.67468	-6.03358	1246.84326	-77.37546	-65.03822	642.03101	-300.61502	92.08218	641.06549	-280.22165	-176.11787	478.97147	623.13776	-25.68910	469.17053	640.36340	
15	0.140	-204.81847	63.56756	-205.99843	193.88214	51.76495	-142.39201	-292.83282	-47.70902	421.45270	116.66302	-51.11866	436.68661	-6.01706	1246.82642	-77.40303	-65.06925	642.03607	-300.61694	92.12901	641.13721	-280.21741	-176.09401	478.98547	623.14691	-25.69828	469.18188	640.35535	
16	0.150	-204.80798	63.56721	-206.01797	193.91037	51.72787	-142.34947	-292.78247	-47.74499	421.46521	116.66388	-51.14285	436.70242	-6.03690	1246.81213	-77.38973	-65.05418	641.99097	-300.61285	92.31637	641.10913	-280.31033	-176.10248	478.98898	623.14648	-25.70166	469.18134	640.36920	
17	0.160	-204.81209	63.54974	-206.00497	193.89212	51.74072	-142.35089	-292.78110	-47.72797	421.44757	116.65765	-51.11927	436.67285	-6.05610	1246.83899	-77.41086	-65.05828	642.00385	-300.62259	92.32003	641.07861	-280.34100	-176.09180	478.96399	623.14661	-25.65769	469.19141	640.37799	
